<svg height='300px' width='300px'  fill="#000000" xmlns:dc="http://purl.org/dc/elements/1.1/" xmlns:cc="http://creativecommons.org/ns#" xmlns:rdf="http://www.w3.org/1999/02/22-rdf-syntax-ns#" xmlns:svg="http://www.w3.org/2000/svg" xmlns="http://www.w3.org/2000/svg" xmlns:sodipodi="http://sodipodi.sourceforge.net/DTD/sodipodi-0.dtd" xmlns:inkscape="http://www.inkscape.org/namespaces/inkscape" version="1.1" x="0px" y="0px" viewBox="0 0 100 100"><g transform="translate(0,-952.36218)"><path style="color:#000000;enable-background:accumulate;" d="m 69.009147,962.64938 c -0.956612,-0.5523 -2.17975,-0.22457 -2.73205,0.73204 l -4.000001,6.92821 c -0.5523,0.95661 -0.224561,2.17975 0.732052,2.73205 0.956611,0.5523 2.17975,0.22456 2.732049,-0.73205 l 4.000001,-6.9282 c 0.552299,-0.95661 0.224561,-2.17976 -0.732051,-2.73205 z m -30.351638,-3.99182 c -0.443318,-0.25595 -0.981173,-0.33196 -1.51474,-0.189 -1.066866,0.28587 -1.692068,1.36875 -1.406252,2.4357 l 2.070399,7.72657 c 0.285643,1.06685 1.368694,1.69215 2.435611,1.40619 1.066903,-0.28573 1.692102,-1.3686 1.406199,-2.43561 l -2.070262,-7.7266 c -0.142882,-0.53352 -0.477811,-0.9614 -0.920955,-1.21725 z m 48.984474,28.2812 c -0.443144,-0.25585 -0.98108,-0.33193 -1.514652,-0.18895 l -7.726565,2.07041 c -1.067002,0.2859 -1.692201,1.36877 -1.406199,2.43561 0.285816,1.06695 1.368781,1.69219 2.435609,1.40619 l 7.7266,-2.07026 c 1.066917,-0.28595 1.692116,-1.36883 1.406251,-2.4357 -0.142971,-0.53356 -0.477637,-0.96131 -0.921044,-1.2173 z m -27.632837,-8.70092 c -10.561353,-6.0976 -25.51536,-3.8061 -32.206523,7.78333 -8.187394,14.18093 -0.260098,23.56673 -4.428035,33.41963 l 19.269072,11.125 c 6.448868,-8.536 18.540792,-6.3636 26.728181,-20.5446 6.691166,-11.58947 1.198658,-25.68576 -9.362695,-31.78336 z m -4.484037,3.32898 c 1.159777,0.59801 1.785833,1.72444 1.103711,2.83831 -0.495021,0.9234 -1.785922,1.31271 -2.709136,0.81756 -6.895725,-2.97665 -15.044168,-0.38033 -18.900933,6.29978 -0.768099,1.33038 -1.308073,2.72205 -1.634815,4.14398 -0.152475,1.0975 -1.358742,1.91141 -2.437701,1.65983 -1.078899,-0.25172 -1.790853,-1.51316 -1.442084,-2.56464 0.412833,-1.80005 1.079399,-3.55718 2.050499,-5.23917 4.858665,-8.41546 15.243231,-11.72265 23.970459,-7.95565 z m -41.156978,-4.27643 c -0.956611,-0.5523 -2.179766,-0.22453 -2.732065,0.73208 -0.552302,0.95661 -0.224561,2.17975 0.732051,2.73205 l 6.928201,4 c 0.956613,0.5523 2.179753,0.22456 2.732053,-0.73205 0.552299,-0.95661 0.224573,-2.17977 -0.732036,-2.73208 l -6.928204,-4 z m 62.353822,36.00011 c -0.95661,-0.5523 -2.179771,-0.2246 -2.732055,0.732 -0.55231,0.9566 -0.224561,2.1797 0.732048,2.7321 l 6.928191,4 c 0.956635,0.5522 2.179764,0.2245 2.732073,-0.7321 0.552285,-0.9566 0.224569,-2.1798 -0.732041,-2.7321 l -6.928216,-3.9999 z m -55.239097,9.6769 -1.999999,3.4641 19.052564,10.9999 1.999999,-3.4641 -19.052564,-10.9999 z m -3.999999,6.9282 -1.000012,1.7321 c -1.149052,1.9902 -0.363634,4.4088 1.464096,5.4641 l 12.124373,6.9999 c 1.82773,1.0553 4.315043,0.5262 5.464094,-1.4641 l 1.000014,-1.7321 -19.052565,-10.9999 z m 2.062163,10.4282 c -1.108002,1.9191 -0.455002,4.3561 1.464122,5.464 1.919098,1.1081 4.356092,0.4551 5.464094,-1.464 l -6.928216,-4 z" fill="#000000" stroke="none" marker="none" visibility="visible" display="inline" overflow="visible"></path></g></svg>